<svg width="241" height="80" viewBox="0 0 241 80" fill="none" xmlns="http://www.w3.org/2000/svg">
<path d="M123.347 43.1423C123.347 54.1795 132.498 62.2528 144.125 62.2528C155.75 62.2528 164.912 54.1795 164.912 43.1423V17.7847H153.654V41.835C153.654 47.7926 149.523 51.8044 144.094 51.8044C138.666 51.8044 134.534 47.8126 134.534 41.835V17.7847H123.278L123.347 43.1423ZM194.99 27.9337H208.421V61.4145H219.678V27.9337H233.111V17.7647H194.99V27.9337ZM187.714 17.7647H176.458V61.4145H187.714V17.7647ZM77.8712 27.9337H91.3034V61.4145H102.56V27.9337H115.982V17.7647H77.8712V27.9337ZM18.8131 17.7647H7.5564V61.4145H18.8131V17.7647ZM71.9434 35.9971C71.9434 24.9598 62.7923 16.8965 51.1564 16.8965C39.5204 16.8965 30.3693 24.9598 30.3693 35.9971V61.4145H41.626V37.3642C41.626 31.4066 45.7575 27.3948 51.1863 27.3948C56.615 27.3948 60.7466 31.3866 60.7466 37.3642V61.4145H72.0033L71.9334 35.9971H71.9434Z" fill="#236CFF"/>
</svg>
