<svg width="134" height="80" viewBox="0 0 134 80" fill="none" xmlns="http://www.w3.org/2000/svg">
<path fill-rule="evenodd" clip-rule="evenodd" d="M27.31 48.5127C26.3725 48.5127 25.6385 49.1686 25.6385 50.1256C25.6385 51.0832 26.3763 51.7353 27.31 51.7353C28.243 51.7353 28.9814 51.0788 28.9814 50.1256C28.9814 49.1686 28.2468 48.5127 27.31 48.5127ZM27.31 51.2741C26.6415 51.2741 26.1457 50.7858 26.1457 50.1256C26.1457 49.4659 26.6377 48.9739 27.31 48.9739C27.974 48.9739 28.4736 49.4735 28.4736 50.1256C28.4736 50.7739 27.9696 51.2741 27.31 51.2741ZM43.5742 42.8714H35.4374L36.3622 28.7285L31.0782 42.8714H23.5222L35.5111 10.9043H43.5509L42.6228 25.2413L48.0071 10.9043H55.5637L43.5742 42.8714ZM44.5558 42.8714L56.544 10.9043H64.0999L52.1117 42.8714H44.5558Z" fill="black"/>
<path fill-rule="evenodd" clip-rule="evenodd" d="M22.6509 31.8526C12.0922 44.2522 2.1321 60.7508 10.9298 68.3484C19.4548 75.7109 30.1105 71.3517 37.376 68.4454C44.6415 65.5391 124.947 30.6656 124.947 30.6656C125.722 30.2782 125.577 29.7937 124.608 30.0356C124.217 30.1333 37.1826 53.7203 37.1826 53.7203C26.1381 56.8207 13.5451 50.0636 22.6509 31.8526Z" fill="black"/>
<path fill-rule="evenodd" clip-rule="evenodd" d="M27.5947 50.239C27.8291 50.2276 28.0124 50.1067 28.0124 49.7822C28.0124 49.3639 27.739 49.2587 27.2822 49.2587H26.6257V50.9931H27.0636V50.2547H27.1373L27.5361 50.9931H28.0395L27.5947 50.239ZM27.3137 49.958H27.0642V49.5554H27.2747C27.4038 49.5554 27.5519 49.5705 27.5519 49.7387C27.5519 49.9189 27.4662 49.958 27.3137 49.958ZM103.265 10.8066C102.328 10.8066 101.594 11.4631 101.594 12.4195C101.594 13.3765 102.332 14.0286 103.265 14.0286C104.198 14.0286 104.937 13.3721 104.937 12.4195C104.937 11.4631 104.203 10.8066 103.265 10.8066ZM103.265 13.5687C102.597 13.5687 102.101 13.0804 102.101 12.4201C102.101 11.7605 102.593 11.2685 103.265 11.2685C103.929 11.2685 104.429 11.7681 104.429 12.4201C104.429 13.0685 103.925 13.5687 103.265 13.5687Z" fill="black"/>
<path fill-rule="evenodd" clip-rule="evenodd" d="M103.551 12.5329C103.785 12.5216 103.969 12.4006 103.969 12.0762C103.969 11.6578 103.695 11.5526 103.239 11.5526H102.582V13.2864H103.02V12.5487H103.094L103.492 13.2864H103.996L103.551 12.5329ZM103.269 12.2519H103.02V11.8493H103.231C103.359 11.8493 103.508 11.8651 103.508 12.0333C103.508 12.2129 103.422 12.2519 103.269 12.2519ZM98.2868 16.2325L100.317 10.9043H77.262L69.3457 20.4946L73.0005 10.9043H65.3475L53.4551 42.8714H61.011L66.0884 29.5034L66.4362 42.8714L89.6207 42.821L91.8277 36.6719H83.013L85.9092 28.9225H93.1741L95.4094 22.965H88.1446L90.6351 16.2325H98.2868ZM73.9323 40.74L73.4478 24.0789L84.8722 11.5356L73.9323 40.74Z" fill="black"/>
</svg>
