<svg width="608" height="399" viewBox="0 0 608 399" fill="none" xmlns="http://www.w3.org/2000/svg">
<g clip-path="url(#clip0_8533_144784)">
<circle cx="304" cy="199.504" r="83.2501" fill="#EFF6D8"/>
<circle cx="304" cy="199.504" r="135.875" stroke="#EFF6D8" stroke-width="2"/>
<circle cx="348.583" cy="70.4912" r="7.8623" fill="#EFF6D8"/>
<circle cx="3.50854" cy="3.50854" r="3.50854" transform="matrix(1 0 0 -1 548.022 78.7285)" fill="#EFF6D8"/>
<circle cx="130.97" cy="285.508" r="7.36328" fill="#EFF6D8"/>
<circle cx="304" cy="199.505" r="192.214" stroke="#EFF6D8" stroke-opacity="0.5" stroke-width="2"/>
<circle cx="304" cy="199.505" r="277.12" stroke="#EFF6D8" stroke-opacity="0.3" stroke-width="2"/>
<path fill-rule="evenodd" clip-rule="evenodd" d="M383.464 134.982C383.464 143.336 390.236 150.107 398.589 150.107H438.464C447.577 150.107 454.964 142.72 454.964 133.607C454.964 124.495 447.577 117.107 438.464 117.107C438.305 117.107 438.147 117.11 437.99 117.114C434.901 110.607 428.271 106.107 420.589 106.107C411.726 106.107 404.262 112.097 402.024 120.249C400.92 119.993 399.77 119.857 398.589 119.857C390.236 119.857 383.464 126.629 383.464 134.982Z" fill="#EAEEF1"/>
<path d="M401.339 137.732C401.339 135.454 403.186 133.607 405.464 133.607H432.964C435.242 133.607 437.089 135.454 437.089 137.732V148.732C437.089 158.605 429.086 166.607 419.214 166.607V166.607C409.342 166.607 401.339 158.605 401.339 148.732V137.732Z" fill="#A4D602"/>
<path fill-rule="evenodd" clip-rule="evenodd" d="M404.778 159.276L411.054 133.607H416.554L409.23 163.562C407.51 162.401 406.002 160.949 404.778 159.276ZM414.162 165.884C413.294 165.628 412.453 165.309 411.645 164.931L419.304 133.607H422.054L414.162 165.884Z" fill="#A4D602"/>
<path fill-rule="evenodd" clip-rule="evenodd" d="M404.778 159.276L411.054 133.607H416.554L409.23 163.562C407.51 162.401 406.002 160.949 404.778 159.276ZM414.162 165.884C413.294 165.628 412.453 165.309 411.645 164.931L419.304 133.607H422.054L414.162 165.884Z" fill="white" fill-opacity="0.2"/>
<path fill-rule="evenodd" clip-rule="evenodd" d="M404.778 159.276L411.054 133.607H416.554L409.23 163.562C407.51 162.401 406.002 160.949 404.778 159.276ZM414.162 165.884C413.294 165.628 412.453 165.309 411.645 164.931L419.304 133.607H422.054L414.162 165.884Z" fill="white" fill-opacity="0.2"/>
<path d="M427.464 128.107C427.464 125.919 426.595 123.821 425.047 122.274C423.5 120.727 421.402 119.857 419.214 119.857C417.026 119.857 414.927 120.727 413.38 122.274C411.833 123.821 410.964 125.919 410.964 128.107" stroke="#A4D602" stroke-width="4.125" stroke-linecap="round"/>
<path fill-rule="evenodd" clip-rule="evenodd" d="M421.693 150.399C421.551 149.829 421.804 149.246 422.208 148.82C422.909 148.08 423.339 147.082 423.339 145.982C423.339 143.704 421.492 141.857 419.214 141.857C416.936 141.857 415.089 143.704 415.089 145.982C415.089 147.082 415.519 148.08 416.219 148.82C416.624 149.246 416.877 149.829 416.735 150.399L415.516 155.274C415.299 156.142 415.955 156.982 416.85 156.982H421.578C422.472 156.982 423.129 156.142 422.912 155.274L421.693 150.399Z" fill="#EAEEF1"/>
<path d="M442.839 290.008C443.667 290.008 444.339 290.679 444.339 291.508V294.508H449.964V291.508C449.964 290.679 450.635 290.008 451.464 290.008C452.292 290.008 452.964 290.679 452.964 291.508V294.508H458.589V291.508C458.589 290.679 459.26 290.008 460.089 290.008C460.917 290.008 461.589 290.679 461.589 291.508V294.509C464.251 294.575 466.397 296.721 466.462 299.383H469.464C470.292 299.383 470.964 300.054 470.964 300.883C470.964 301.711 470.292 302.383 469.464 302.383H466.464V308.008H469.464C470.292 308.008 470.964 308.679 470.964 309.508C470.964 310.336 470.292 311.008 469.464 311.008H466.464V316.633H469.464C470.292 316.633 470.964 317.304 470.964 318.133C470.964 318.961 470.292 319.633 469.464 319.633H466.462C466.397 322.295 464.251 324.441 461.589 324.506V327.508C461.589 328.336 460.917 329.008 460.089 329.008C459.26 329.008 458.589 328.336 458.589 327.508V324.508H452.964V327.508C452.964 328.336 452.292 329.008 451.464 329.008C450.635 329.008 449.964 328.336 449.964 327.508V324.508H444.339V327.508C444.339 328.336 443.667 329.008 442.839 329.008C442.01 329.008 441.339 328.336 441.339 327.508V324.506C438.677 324.441 436.531 322.295 436.465 319.633H433.464C432.635 319.633 431.964 318.961 431.964 318.133C431.964 317.304 432.635 316.633 433.464 316.633H436.464V311.008H433.464C432.635 311.008 431.964 310.336 431.964 309.508C431.964 308.679 432.635 308.008 433.464 308.008H436.464V302.383H433.464C432.635 302.383 431.964 301.711 431.964 300.883C431.964 300.054 432.635 299.383 433.464 299.383H436.465C436.531 296.721 438.677 294.575 441.339 294.509V291.508C441.339 290.679 442.01 290.008 442.839 290.008Z" fill="#CEDBE4"/>
<g filter="url(#filter0_d_8533_144784)">
<path d="M442.472 304.632C442.507 303.292 443.573 302.278 444.892 302.043C445.621 301.913 446.408 301.748 447.058 301.555C448.002 301.274 449.236 300.761 450.158 300.354C450.989 299.988 451.939 299.988 452.77 300.354C453.692 300.761 454.926 301.274 455.87 301.555C456.519 301.748 457.307 301.913 458.036 302.043C459.355 302.278 460.421 303.292 460.456 304.632C460.558 308.533 459.779 316.377 452.274 319.002C451.752 319.185 451.175 319.185 450.653 319.002C443.148 316.377 442.37 308.533 442.472 304.632Z" fill="#A4D602"/>
<path fill-rule="evenodd" clip-rule="evenodd" d="M446.106 312.659L448.391 303.316C449.094 303.08 449.947 302.711 450.576 302.425C450.727 302.356 450.885 302.305 451.046 302.273L447.92 315.057C447.149 314.347 446.558 313.526 446.106 312.659ZM449.98 316.446C449.603 316.266 449.253 316.066 448.926 315.848L452.222 302.371C452.266 302.387 452.309 302.405 452.352 302.425C452.636 302.554 452.966 302.7 453.306 302.843L449.98 316.446Z" fill="white"/>
<path d="M444.727 305.524C444.762 304.63 445.469 303.953 446.35 303.799C446.945 303.694 447.616 303.556 448.16 303.39C448.899 303.165 449.876 302.744 450.576 302.425C451.139 302.169 451.788 302.169 452.352 302.425C453.052 302.744 454.029 303.165 454.768 303.39C455.311 303.556 455.983 303.694 456.578 303.799C457.459 303.953 458.166 304.63 458.2 305.524C458.312 308.443 457.848 314.777 452.018 316.83C451.662 316.956 451.266 316.956 450.909 316.83C445.08 314.777 444.615 308.443 444.727 305.524Z" stroke="white" stroke-width="1.5"/>
</g>
<path d="M265.458 170.184C265.603 168.851 266.654 167.859 267.983 167.676C271.737 167.16 279.419 165.982 284.87 164.331C290.821 162.529 299.431 158.554 302.686 157.012C303.521 156.616 304.479 156.616 305.314 157.012C308.569 158.554 317.179 162.529 323.13 164.331C328.581 165.982 336.263 167.16 340.017 167.676C341.346 167.859 342.397 168.851 342.542 170.184C343.732 181.169 346.523 229.756 304.844 242.378C304.305 242.541 303.695 242.541 303.156 242.378C261.477 229.756 264.268 181.169 265.458 170.184Z" fill="url(#paint0_linear_8533_144784)"/>
<path fill-rule="evenodd" clip-rule="evenodd" d="M298.861 229.938C297.156 229.166 295.573 228.297 294.105 227.345L308.313 169.239C309.78 169.919 311.48 170.681 313.178 171.384L298.861 229.938ZM303.324 167.596L289.572 223.839C286.082 220.641 283.443 216.898 281.457 212.937L291.284 172.748C295.245 171.365 300.271 168.989 302.643 167.834C302.862 167.727 303.091 167.648 303.324 167.596Z" fill="white"/>
<g filter="url(#filter1_i_8533_144784)">
<path d="M276.033 178.088C276.16 176.751 277.211 175.74 278.54 175.544C281.42 175.12 286.48 174.276 290.147 173.126C294.229 171.845 300.037 169.103 302.643 167.834C303.5 167.417 304.5 167.417 305.357 167.834C307.963 169.103 313.771 171.845 317.853 173.126C321.52 174.276 326.58 175.12 329.46 175.544C330.789 175.74 331.84 176.751 331.967 178.088C332.841 187.289 334.133 222.194 304.868 231.579C304.314 231.757 303.686 231.757 303.132 231.579C273.867 222.194 275.159 187.289 276.033 178.088Z" fill="#A4D602"/>
</g>
<path d="M276.033 178.088C276.16 176.751 277.211 175.74 278.54 175.544C281.42 175.12 286.48 174.276 290.147 173.126C294.229 171.845 300.037 169.103 302.643 167.834C303.5 167.417 304.5 167.417 305.357 167.834C307.963 169.103 313.771 171.845 317.853 173.126C321.52 174.276 326.58 175.12 329.46 175.544C330.789 175.74 331.84 176.751 331.967 178.088C332.841 187.289 334.133 222.194 304.868 231.579C304.314 231.757 303.686 231.757 303.132 231.579C273.867 222.194 275.159 187.289 276.033 178.088Z" stroke="#A4D602"/>
<g filter="url(#filter2_d_8533_144784)">
<path d="M301.859 210.103C301.469 210.494 300.835 210.494 300.445 210.103L290.48 200.139C290.09 199.748 290.09 199.115 290.48 198.725L293.049 196.156C293.439 195.766 294.072 195.766 294.463 196.156L300.445 202.138C300.835 202.529 301.469 202.529 301.859 202.138L319.22 184.777C319.61 184.387 320.243 184.387 320.634 184.777L323.202 187.346C323.593 187.736 323.593 188.369 323.202 188.76L301.859 210.103Z" fill="url(#paint1_linear_8533_144784)"/>
</g>
<path d="M230.846 315.12C230.846 312.995 232.568 311.273 234.692 311.273H259.308C261.432 311.273 263.154 312.995 263.154 315.12V324.35C263.154 333.272 255.922 340.504 247 340.504V340.504C238.079 340.504 230.846 333.272 230.846 324.35V315.12Z" fill="#CEDBE4"/>
<path fill-rule="evenodd" clip-rule="evenodd" d="M235.015 335.181L240.86 311.273H243.937L237.538 337.445C236.619 336.78 235.774 336.02 235.015 335.181ZM240.23 339.021C239.762 338.805 239.307 338.568 238.865 338.309L245.476 311.273H247.014L240.23 339.021Z" fill="white"/>
<path d="M254.692 308.196C254.692 306.156 253.882 304.2 252.439 302.757C250.997 301.314 249.04 300.504 247 300.504C244.96 300.504 243.003 301.314 241.561 302.757C240.118 304.2 239.308 306.156 239.308 308.196" stroke="#CEDBE4" stroke-width="3.07692" stroke-linecap="round"/>
<g filter="url(#filter3_d_8533_144784)">
<path fill-rule="evenodd" clip-rule="evenodd" d="M242.385 329.736C240.982 331.604 238.747 332.812 236.231 332.812C231.983 332.812 228.539 329.368 228.539 325.12C228.539 320.872 231.983 317.428 236.231 317.428C238.748 317.428 240.982 318.636 242.385 320.505H260.846C263.395 320.505 265.462 322.571 265.462 325.12C265.462 327.669 263.395 329.736 260.846 329.736H242.385Z" fill="#A4D602"/>
</g>
<circle cx="236.231" cy="322.042" r="1.53846" fill="white"/>
<circle cx="248.538" cy="325.12" r="1.53846" fill="white"/>
<circle cx="253.923" cy="325.12" r="1.53846" fill="white"/>
<circle cx="259.308" cy="325.12" r="1.53846" fill="white"/>
<path d="M238.567 328.967C239.401 328.967 240.104 328.266 239.784 327.495V327.495C239.591 327.029 239.308 326.605 238.951 326.248C238.593 325.89 238.169 325.607 237.703 325.414C237.236 325.221 236.736 325.121 236.231 325.121C235.726 325.121 235.226 325.221 234.759 325.414C234.292 325.607 233.868 325.89 233.511 326.248C233.154 326.605 232.871 327.029 232.678 327.495V327.495C232.358 328.266 233.061 328.967 233.895 328.967L238.567 328.967Z" fill="white"/>
<rect x="149.145" y="136.982" width="48" height="40" rx="5" fill="#CEDBE4"/>
<path d="M155.645 144.982C156.473 144.982 157.145 144.311 157.145 143.482C157.145 142.654 156.473 141.982 155.645 141.982C154.817 141.982 154.145 142.654 154.145 143.482C154.145 144.311 154.817 144.982 155.645 144.982Z" fill="white"/>
<path d="M160.645 144.982C161.473 144.982 162.145 144.311 162.145 143.482C162.145 142.654 161.473 141.982 160.645 141.982C159.817 141.982 159.145 142.654 159.145 143.482C159.145 144.311 159.817 144.982 160.645 144.982Z" fill="white"/>
<path d="M165.645 144.982C166.473 144.982 167.145 144.311 167.145 143.482C167.145 142.654 166.473 141.982 165.645 141.982C164.817 141.982 164.145 142.654 164.145 143.482C164.145 144.311 164.817 144.982 165.645 144.982Z" fill="white"/>
<g filter="url(#filter4_d_8533_144784)">
<rect x="157.145" y="152.982" width="44" height="16" rx="5" fill="#B6E102"/>
<path d="M166.852 158.275C166.462 157.885 165.828 157.885 165.438 158.275C165.047 158.666 165.047 159.299 165.438 159.69L166.731 160.982L165.438 162.275C165.047 162.666 165.047 163.299 165.438 163.69C165.828 164.08 166.462 164.08 166.852 163.69L168.145 162.397L169.438 163.69C169.828 164.08 170.462 164.08 170.852 163.69C171.243 163.299 171.243 162.666 170.852 162.275L169.559 160.982L170.852 159.69C171.243 159.299 171.243 158.666 170.852 158.275C170.462 157.885 169.828 157.885 169.438 158.275L168.145 159.568L166.852 158.275Z" fill="black"/>
<path d="M177.852 158.275C177.462 157.885 176.828 157.885 176.438 158.275C176.047 158.666 176.047 159.299 176.438 159.69L177.731 160.982L176.438 162.275C176.047 162.666 176.047 163.299 176.438 163.69C176.828 164.08 177.462 164.08 177.852 163.69L179.145 162.397L180.438 163.69C180.828 164.08 181.462 164.08 181.852 163.69C182.243 163.299 182.243 162.666 181.852 162.275L180.559 160.982L181.852 159.69C182.243 159.299 182.243 158.666 181.852 158.275C181.462 157.885 180.828 157.885 180.438 158.275L179.145 159.568L177.852 158.275Z" fill="black"/>
<path d="M187.438 158.275C187.828 157.885 188.462 157.885 188.852 158.275L190.145 159.568L191.438 158.275C191.828 157.885 192.462 157.885 192.852 158.275C193.243 158.666 193.243 159.299 192.852 159.69L191.559 160.982L192.852 162.275C193.243 162.666 193.243 163.299 192.852 163.69C192.462 164.08 191.828 164.08 191.438 163.69L190.145 162.397L188.852 163.69C188.462 164.08 187.828 164.08 187.438 163.69C187.047 163.299 187.047 162.666 187.438 162.275L188.731 160.982L187.438 159.69C187.047 159.299 187.047 158.666 187.438 158.275Z" fill="black"/>
</g>
</g>
<defs>
<filter id="filter0_d_8533_144784" x="438.464" y="298.08" width="26" height="27.0586" filterUnits="userSpaceOnUse" color-interpolation-filters="sRGB">
<feFlood flood-opacity="0" result="BackgroundImageFix"/>
<feColorMatrix in="SourceAlpha" type="matrix" values="0 0 0 0 0 0 0 0 0 0 0 0 0 0 0 0 0 0 127 0" result="hardAlpha"/>
<feOffset dy="2"/>
<feGaussianBlur stdDeviation="2"/>
<feComposite in2="hardAlpha" operator="out"/>
<feColorMatrix type="matrix" values="0 0 0 0 0 0 0 0 0 0 0 0 0 0 0 0 0 0 0.08 0"/>
<feBlend mode="normal" in2="BackgroundImageFix" result="effect1_dropShadow_8533_144784"/>
<feBlend mode="normal" in="SourceGraphic" in2="effect1_dropShadow_8533_144784" result="shape"/>
</filter>
<filter id="filter1_i_8533_144784" x="275.201" y="167.021" width="60.5977" height="65.1914" filterUnits="userSpaceOnUse" color-interpolation-filters="sRGB">
<feFlood flood-opacity="0" result="BackgroundImageFix"/>
<feBlend mode="normal" in="SourceGraphic" in2="BackgroundImageFix" result="shape"/>
<feColorMatrix in="SourceAlpha" type="matrix" values="0 0 0 0 0 0 0 0 0 0 0 0 0 0 0 0 0 0 127 0" result="hardAlpha"/>
<feOffset dx="3"/>
<feGaussianBlur stdDeviation="2"/>
<feComposite in2="hardAlpha" operator="arithmetic" k2="-1" k3="1"/>
<feColorMatrix type="matrix" values="0 0 0 0 0.0454508 0 0 0 0 0.395723 0 0 0 0 0.0594617 0 0 0 0.25 0"/>
<feBlend mode="normal" in2="shape" result="effect1_innerShadow_8533_144784"/>
</filter>
<filter id="filter2_d_8533_144784" x="288.188" y="183.484" width="37.3076" height="29.9121" filterUnits="userSpaceOnUse" color-interpolation-filters="sRGB">
<feFlood flood-opacity="0" result="BackgroundImageFix"/>
<feColorMatrix in="SourceAlpha" type="matrix" values="0 0 0 0 0 0 0 0 0 0 0 0 0 0 0 0 0 0 127 0" result="hardAlpha"/>
<feOffset dy="1"/>
<feGaussianBlur stdDeviation="1"/>
<feComposite in2="hardAlpha" operator="out"/>
<feColorMatrix type="matrix" values="0 0 0 0 0 0 0 0 0 0 0 0 0 0 0 0 0 0 0.25 0"/>
<feBlend mode="normal" in2="BackgroundImageFix" result="effect1_dropShadow_8533_144784"/>
<feBlend mode="normal" in="SourceGraphic" in2="effect1_dropShadow_8533_144784" result="shape"/>
</filter>
<filter id="filter3_d_8533_144784" x="224.539" y="315.428" width="44.9231" height="23.3848" filterUnits="userSpaceOnUse" color-interpolation-filters="sRGB">
<feFlood flood-opacity="0" result="BackgroundImageFix"/>
<feColorMatrix in="SourceAlpha" type="matrix" values="0 0 0 0 0 0 0 0 0 0 0 0 0 0 0 0 0 0 127 0" result="hardAlpha"/>
<feOffset dy="2"/>
<feGaussianBlur stdDeviation="2"/>
<feComposite in2="hardAlpha" operator="out"/>
<feColorMatrix type="matrix" values="0 0 0 0 0 0 0 0 0 0 0 0 0 0 0 0 0 0 0.08 0"/>
<feBlend mode="normal" in2="BackgroundImageFix" result="effect1_dropShadow_8533_144784"/>
<feBlend mode="normal" in="SourceGraphic" in2="effect1_dropShadow_8533_144784" result="shape"/>
</filter>
<filter id="filter4_d_8533_144784" x="153.145" y="150.982" width="52" height="24" filterUnits="userSpaceOnUse" color-interpolation-filters="sRGB">
<feFlood flood-opacity="0" result="BackgroundImageFix"/>
<feColorMatrix in="SourceAlpha" type="matrix" values="0 0 0 0 0 0 0 0 0 0 0 0 0 0 0 0 0 0 127 0" result="hardAlpha"/>
<feOffset dy="2"/>
<feGaussianBlur stdDeviation="2"/>
<feComposite in2="hardAlpha" operator="out"/>
<feColorMatrix type="matrix" values="0 0 0 0 0 0 0 0 0 0 0 0 0 0 0 0 0 0 0.08 0"/>
<feBlend mode="normal" in2="BackgroundImageFix" result="effect1_dropShadow_8533_144784"/>
<feBlend mode="normal" in="SourceGraphic" in2="effect1_dropShadow_8533_144784" result="shape"/>
</filter>
<linearGradient id="paint0_linear_8533_144784" x1="343.079" y1="197.726" x2="264.921" y2="199.505" gradientUnits="userSpaceOnUse">
<stop stop-color="#C6CEE3"/>
<stop offset="1" stop-color="#E1E7F6"/>
</linearGradient>
<linearGradient id="paint1_linear_8533_144784" x1="290.339" y1="198.78" x2="323.909" y2="198.36" gradientUnits="userSpaceOnUse">
<stop stop-color="#E8ECF7"/>
<stop offset="1" stop-color="#C8D0E4"/>
</linearGradient>
<clipPath id="clip0_8533_144784">
<rect width="608" height="398" fill="white" transform="translate(0 0.503906)"/>
</clipPath>
</defs>
</svg>
