<svg width="193" height="80" viewBox="0 0 193 80" fill="none" xmlns="http://www.w3.org/2000/svg">
<path d="M90.9982 38.5652C86.6049 38.5652 86.2457 35.2219 86.2457 34.2271C86.2457 33.0666 86.522 30.8838 89.368 29.8338C92.2416 28.7838 92.8495 28.6733 94.8942 28.0101V27.5128C94.8942 26.5181 94.8942 26.3523 94.6732 25.6891C94.314 24.5563 93.2087 23.7826 91.6614 23.7826C90.1969 23.7826 88.9535 24.6115 88.3733 25.8273L87.5443 25.3299C88.0417 23.5063 89.9206 21.7103 93.1258 21.7103C95.3363 21.7103 96.8836 22.3458 97.7955 23.755C98.4862 24.8878 98.5691 26.4075 98.5691 27.9549C98.5691 29.3641 98.4862 30.9114 98.4862 32.1548C98.4862 32.9837 98.4034 33.785 98.4034 34.2271C98.4034 35.36 98.6244 36.2718 99.5362 36.2718C99.9507 36.2718 100.034 36.1337 100.365 35.9126L100.863 36.5481C100.034 37.681 99.0389 38.5928 97.4363 38.5928C96.1929 38.5928 95.281 37.9573 94.8942 36.935C94.3416 37.6534 93.0153 38.5652 90.9982 38.5652ZM94.8666 29.9996C92.7114 30.6351 91.9101 30.9943 91.3022 31.3259C90.3075 31.8232 89.893 32.7351 89.893 33.8956C89.893 34.8074 90.2522 36.2718 92.3521 36.2718C93.0429 36.2718 94.01 36.1337 94.9218 35.4982V29.972L94.8666 29.9996ZM58.5041 37.681C58.5041 36.0508 58.5041 34.6692 58.366 33.0114H59.3607C59.3607 34.0613 59.637 34.835 60.1344 35.3047C60.8251 36.0784 62.4277 36.5481 63.8922 36.5481C66.9592 36.5481 68.4237 35.3876 68.4237 32.8456C68.4237 30.6904 67.0974 29.7785 65.3014 28.5075L65.025 28.2865L63.0632 26.9602C60.3554 25.1365 58.9462 23.755 58.9462 20.8813C58.9462 19.4722 59.4988 14.8578 66.2684 14.8578C68.0092 14.8578 70.2473 15.0788 71.5736 15.2722C71.5736 15.4933 71.4907 16.5156 71.4907 17.4275C71.4907 18.4774 71.4907 18.7537 71.5736 19.9971H70.7447C70.7447 18.8643 70.3855 18.1735 69.9157 17.7038C69.2802 17.0683 67.8434 16.7091 66.2961 16.7091C62.6764 16.7091 62.2619 18.5327 62.2619 19.9143C62.2619 21.8208 63.2567 22.4839 65.3843 23.8931L67.8434 25.5234C69.9157 26.9325 71.8775 28.2312 71.8775 31.7403C71.8775 37.5981 66.3513 38.2336 64.058 38.2336C61.9304 38.5652 60.162 38.2336 58.5041 37.681ZM102.355 22.7602C103.184 22.8431 104.427 22.7603 105.643 22.5392C106.693 22.3182 107.052 22.18 107.798 21.8484L108.157 22.0695V23.3129C108.986 22.6774 110.616 21.7655 112.91 21.7655C115.866 21.7655 117.745 23.1747 118.27 25.6062C118.408 26.2418 118.491 27.6786 118.491 28.5628V33.3153C118.491 35.9679 118.629 36.7416 119.127 37.2389C119.403 37.46 119.956 37.7363 120.757 37.7363V38.5099C119.707 38.4271 117.8 38.3718 116.723 38.3718C115.258 38.3718 113.6 38.4547 112.689 38.5099V37.7363C113.518 37.6534 114.015 37.3771 114.319 37.1837C114.816 36.6863 114.871 35.7745 114.954 33.7574C114.954 33.1219 115.037 31.8509 115.037 30.9667C115.037 29.8062 115.037 28.5075 114.899 27.2641C114.678 25.1918 113.573 24.1971 111.473 24.1971C110.008 24.1971 109.097 24.5563 108.406 24.8878V33.3982C108.406 36.0508 108.544 36.8245 109.041 37.3218C109.318 37.5429 109.953 37.8192 110.589 37.8192V38.5928C109.262 38.5099 107.632 38.4547 106.61 38.4547C104.455 38.4547 103.736 38.5376 102.493 38.5928V37.7915C103.184 37.7915 103.902 37.5152 104.233 37.1008C104.731 36.5481 104.786 35.139 104.786 32.4311V27.5681C104.786 25.5234 104.703 24.6944 104.427 24.28C104.206 23.9208 103.653 23.6444 102.52 23.6444V22.7326H102.382V22.7602H102.355ZM122.553 37.6534C123.244 37.6534 123.962 37.4323 124.294 36.9626C124.791 36.41 124.846 35.0008 124.846 32.293V24.1694H122.774V23.2576C123.686 22.8984 124.432 22.4839 124.846 22.1247C124.846 20.6603 124.929 18.8366 125.123 17.7867C125.758 14.4433 127.913 12.7578 131.616 12.7578C133.246 12.7578 134.738 13.3104 135.733 14.0841L135.816 14.4433L134.186 16.6538H133.771C133.218 15.3275 132.362 14.5815 130.897 14.5815C130.4 14.5815 129.737 14.7196 129.267 15.1341C128.576 15.8249 128.438 16.8748 128.438 18.9748V22.0971H132.058V24.1418H128.466V33.1495C128.466 35.3047 128.549 36.3547 128.825 36.7692C129.24 37.46 130.732 37.5429 131.395 37.5429V38.3718C130.234 38.2889 128.328 38.2336 127.001 38.2336C124.957 38.2336 123.658 38.3165 122.608 38.3718L122.553 37.6534ZM141.259 38.6757C136.313 38.6757 133.384 35.6087 133.384 30.4417C133.384 26.4075 135.539 21.7103 141.618 21.7103C146.564 21.7103 149.493 24.7773 149.493 29.9443C149.493 33.9785 147.31 38.6757 141.259 38.6757ZM141.48 23.5892C140.485 23.5892 139.739 23.8655 139.187 24.3629C137.86 25.4957 137.225 27.4299 137.225 30.3035C137.225 31.4364 137.446 36.8797 141.425 36.8797C142.42 36.8797 143.166 36.6034 143.718 36.106C145.045 34.9732 145.68 33.039 145.68 30.1654C145.652 29.0325 145.459 23.5892 141.48 23.5892ZM151.151 22.6774C152.284 22.7603 153.444 22.5945 154.715 22.401C155.71 22.2629 156.346 22.0418 156.677 21.8484L156.954 21.9866V23.3958C157.727 22.6221 158.998 21.8484 160.711 21.8484C161.955 21.8484 162.784 22.2076 163.585 22.8431V23.3405L162.176 25.8826H161.485C161.071 25.1089 160.242 24.4181 158.777 24.4181C158.086 24.4181 157.534 24.5563 157.036 24.9155V33.2324C157.036 35.3876 157.119 36.3547 157.396 36.7968C157.81 37.4876 159.219 37.5705 159.965 37.4876V38.3994C158.832 38.3165 156.898 38.2613 155.572 38.2613C154.025 38.2613 152.45 38.2613 151.179 38.3994V37.5705C152.09 37.4876 152.588 37.2942 152.919 36.8797C153.417 36.3271 153.472 34.9732 153.472 32.2101V27.6509C153.472 25.6062 153.472 24.7773 153.113 24.3629C152.837 24.0036 152.284 23.8102 151.206 23.8102V22.7602L151.151 22.6774ZM174.002 13.7525C174.997 13.7525 176.212 13.5315 177.843 13.2552C178.754 13.117 179.307 12.896 179.583 12.8407L179.86 12.9789C179.722 14.3052 179.722 17.3169 179.722 19.4722V32.7351C179.722 34.6969 179.722 35.9403 179.998 36.3547C180.274 36.7139 180.827 36.9902 181.904 36.9902V37.8192C180.854 37.8192 179.694 37.9573 178.423 38.1784C177.594 38.3165 176.958 38.4547 176.599 38.5928L176.185 38.4547V37.0455C175.356 37.681 173.808 38.5928 171.653 38.5928C167.177 38.5928 164.331 35.5258 164.331 30.718C164.331 29.0878 164.607 27.6509 165.16 26.3247C166.569 23.3681 169.36 21.7103 172.897 21.7103C174.223 21.7103 175.356 21.8484 176.019 21.9866V18.5051C176.019 16.4604 176.019 15.438 175.66 14.9407C175.439 14.5815 175.107 14.4433 173.919 14.388V13.7249L174.002 13.7525ZM173.449 36.2995C174.582 36.2995 175.356 36.1613 176.102 35.6639V24.7773C175.826 24.501 174.858 23.6444 172.897 23.6444C169.774 23.6444 168.227 25.7997 168.227 30.3035C168.144 32.1824 168.697 36.2995 173.449 36.2995ZM84.6155 36.7968C84.1181 37.4323 82.8747 38.7034 80.2221 38.7034C77.6801 38.7034 76.2985 37.7915 75.6906 35.7468C75.4143 34.9732 75.4143 33.3706 75.4143 32.4587C75.4143 29.8891 75.4143 27.7891 75.4972 25.3299V24.1971H73.3144V23.5616C74.1433 23.2023 74.7788 22.8708 75.3591 22.4287C76.6025 21.434 77.4314 20.2735 78.3708 18.5051H79.0616V22.1247H84.5878V24.1694H79.0616V32.6798C79.0616 35.2495 79.559 36.6587 81.9352 36.6587C83.0681 36.6587 83.8418 36.2995 84.2286 36.0232L84.6155 36.7968Z" fill="#8C1515"/>
<path d="M148.885 51.5244C148.609 51.5244 148.25 51.6073 148.056 51.8007C147.835 51.9389 147.835 52.1599 147.835 52.2981C147.835 52.5744 147.918 52.7955 148.112 53.3481L149.659 57.3822C149.88 58.0177 150.073 58.5151 150.156 58.8467L152.063 53.3204C152.284 52.6849 152.339 52.5468 152.339 52.2705C152.339 52.1323 152.256 51.9942 152.118 51.856C151.897 51.7178 151.621 51.5797 151.289 51.5797V50.9442C151.51 50.9442 151.98 50.9442 152.201 51.0271C152.422 51.0271 152.837 51.11 153.196 51.11C153.887 51.11 154.854 51.0271 155.268 51.0271V51.6626C154.992 51.7455 154.356 51.5797 153.804 53.2099L149.825 63.8202C149.272 65.3676 148.498 67.2465 145.791 67.2465C144.658 67.2465 143.884 66.9702 143.249 66.4176V66.1412L144.243 64.9807H144.52C144.796 65.6163 145.349 65.8926 146.15 65.8926C147.393 65.8926 147.973 64.7597 148.802 62.5492L149.023 61.9137L145.68 53.2099C145.68 53.127 145.597 52.9889 145.542 52.8507C145.459 52.6297 145.266 52.2152 145.266 52.2152C145.045 51.8007 144.713 51.6626 144.271 51.6626V51.0271C144.906 51.11 146.012 51.11 146.564 51.11C146.924 51.11 147.476 51.11 148.029 51.0271C148.305 51.0271 148.802 50.9442 149.023 50.9442V51.4968H148.913V51.5244H148.885ZM111.915 51.3863C112.606 51.4692 113.379 51.3034 114.125 51.1652C114.761 51.0271 115.12 50.9442 115.369 50.806L115.59 50.8889V51.8007C116.087 51.3034 116.833 50.806 117.966 50.806C118.795 50.806 119.292 51.0271 119.79 51.4415V51.8007L118.961 53.431H118.546C118.27 52.9336 117.773 52.5191 116.806 52.5191C116.391 52.5191 116.032 52.6573 115.673 52.8783V58.1282C115.673 59.5374 115.756 60.1729 115.894 60.4216C116.17 60.8361 117.027 60.919 117.524 60.919V61.4716C116.833 61.3887 115.562 61.3887 114.733 61.3887C113.739 61.3887 112.689 61.3887 111.943 61.5269V60.9742C112.495 60.9742 112.854 60.7532 113.075 60.5598C113.435 60.2006 113.435 59.3993 113.435 57.548V54.5915C113.435 53.3481 113.435 52.7678 113.214 52.5191C113.075 52.2981 112.661 52.1599 112.053 52.1599V51.3863H111.943H111.915ZM65.4119 61.4992C62.4554 61.4992 60.7423 60.5874 60.1068 58.6256C59.7476 57.6309 59.7476 56.4151 59.7476 55.4204V49.8389C59.7476 48.1811 59.6647 47.8771 59.3331 47.6285C59.1949 47.4903 58.8357 47.3521 58.3384 47.2692V46.7166C59.0292 46.7995 60.2449 46.8548 60.9081 46.8548C62.0686 46.8548 62.8146 46.8548 63.5606 46.7166V47.3521C63.0633 47.3521 62.7317 47.4903 62.4278 47.7666C62.0686 48.1258 62.0686 48.7613 62.0686 50.5573V55.5033C62.0686 58.4598 62.3449 60.3387 65.633 60.3387C68.9763 60.3387 69.1974 58.3769 69.1974 55.3928V49.9495C69.1974 48.2916 69.1145 47.9877 68.7829 47.739C68.5619 47.6008 68.2303 47.4627 67.7882 47.3798V46.8271C68.4237 46.8271 69.2526 46.91 70.0816 46.91C70.8552 46.91 71.6289 46.91 72.5407 46.7719V47.4074C72.0434 47.4074 71.7118 47.5456 71.4079 47.8219C71.0487 48.1811 71.0487 48.8166 71.0487 50.6126V54.8125C71.0487 56.1388 71.0487 57.6033 70.6342 58.7914C70.0263 60.615 68.3408 61.4992 65.4119 61.4992ZM85.3339 60.8637C85.8865 60.7808 86.2457 60.7256 86.4944 60.4493C86.8536 60.09 86.8536 59.2888 86.8536 57.4375V54.4809C86.8536 53.2375 86.8536 52.5744 86.6326 52.3257C86.4944 52.1047 86.2181 51.9665 85.4721 51.9113V51.2757C85.8865 51.3586 87.0194 51.1929 87.8483 51.0547C88.2628 50.9718 88.6773 50.8336 88.9812 50.6955L89.2023 50.9165C89.1194 51.6073 89.1194 53.0718 89.1194 55.0336V58.0454C89.1194 59.4545 89.2023 60.0901 89.3404 60.3387C89.5615 60.615 89.9759 60.8361 90.5838 60.8361V61.3334C90.0312 61.2506 88.9536 61.2506 88.0418 61.2506C86.9918 61.2506 85.8865 61.3334 85.3339 61.3887V60.8637ZM87.9036 48.9271C87.0747 48.9271 86.5773 48.4298 86.5773 47.6837C86.5773 46.9377 87.1299 46.3574 87.9865 46.3574C88.8154 46.3574 89.3128 46.8548 89.3128 47.6008C89.2851 48.4297 88.7325 48.9271 87.9036 48.9271ZM129.461 60.8637C130.013 60.7808 130.373 60.7256 130.621 60.4493C130.98 60.09 130.98 59.2888 130.98 57.4375V54.4809C130.98 53.2375 130.98 52.5744 130.759 52.3257C130.621 52.1047 130.345 51.9665 129.599 51.9113V51.2757C130.013 51.3586 131.146 51.1929 131.975 51.0547C132.39 50.9718 132.887 50.8336 133.108 50.6955L133.329 50.9165C133.246 51.6073 133.246 53.0718 133.246 55.0336V58.0454C133.246 59.4545 133.329 60.0901 133.467 60.3387C133.688 60.615 134.103 60.8361 134.711 60.8361V61.3334C134.075 61.2506 133.053 61.2506 132.141 61.2506C131.091 61.2506 129.986 61.3334 129.433 61.3887V60.8361H129.461V60.8637ZM132.03 48.9271C131.201 48.9271 130.704 48.4298 130.704 47.6837C130.704 46.9377 131.257 46.3574 132.113 46.3574C132.942 46.3574 133.44 46.8548 133.44 47.6008C133.44 48.4297 132.859 48.9271 132.03 48.9271ZM121.006 61.0019C121.006 59.9519 120.923 58.8467 120.867 58.294H121.558C121.558 58.8467 121.696 59.344 121.973 59.6203C122.387 60.1177 122.885 60.3111 123.796 60.3111H123.934C125.067 60.3111 125.675 59.8137 125.675 58.8467C125.675 58.073 125.178 57.7138 124.349 57.2164L122.884 56.3046C122.111 55.8072 121.227 55.1441 121.227 53.652C121.227 52.4915 121.724 51.5797 122.691 51.0823C123.327 50.7231 124.321 50.7231 124.763 50.7231C125.592 50.7231 126.808 50.8613 127.471 50.9994C127.388 51.2757 127.388 51.9942 127.388 52.2428C127.388 52.4639 127.388 53.4033 127.471 53.652H126.78C126.78 53.2375 126.642 52.8231 126.366 52.4915C126.09 52.1323 125.454 51.9389 124.708 51.9389C123.658 51.9389 123.078 52.3534 123.078 53.2652C123.078 53.956 123.631 54.3152 124.128 54.6744H124.211L125.62 55.5033C126.532 56.0559 127.692 56.7467 127.692 58.3769C127.692 61.0848 125.15 61.4992 123.713 61.4992C122.884 61.4163 122 61.3611 121.006 61.0019ZM142.917 60.3387C142.558 60.6979 141.784 61.4992 140.126 61.4992C138.496 61.4992 137.584 60.9466 137.253 59.5927C137.114 59.0953 137.114 58.0454 137.114 57.5204C137.114 55.8625 137.114 54.5086 137.114 52.9889V52.2981H135.705V51.8836C136.258 51.6626 136.617 51.4692 137.032 51.1929C137.805 50.5573 138.358 49.7837 138.993 48.6508H139.491V50.9442H142.972V52.1876H139.491V57.6861C139.491 59.3164 139.767 60.2558 141.314 60.2558C142.005 60.2558 142.475 60.0348 142.779 59.8414L142.917 60.3387ZM95.6956 50.9718C95.4745 50.9718 95.0048 50.9718 94.7008 51.0547C94.1482 51.0547 93.568 51.1376 93.1535 51.1376C92.3798 51.1376 91.247 51.0547 90.943 51.0547V51.6902C91.0812 51.6902 91.6338 51.6073 91.993 52.3257C92.1311 52.602 92.214 52.8231 92.2693 52.9612C92.3522 53.0994 92.4075 53.2376 92.4075 53.3204L95.7508 61.6926L96.8008 61.4716L100.503 53.2375C100.503 53.1547 100.586 53.0994 100.642 52.9612C100.724 52.8783 100.724 52.7402 101.001 52.3257C101.222 51.9113 101.691 51.6902 102.051 51.6902V51.0547C101.636 51.0547 100.724 51.1376 100.006 51.1376C99.6468 51.1376 99.3152 51.1376 98.956 51.0547C98.6797 51.0547 98.2652 50.9718 97.9613 50.9718V51.5244C98.3205 51.5244 98.6521 51.6626 98.7902 51.8007C98.8731 51.8836 99.0113 52.077 99.0113 52.2152C99.0113 52.4363 98.9284 52.6297 98.735 53.2652L96.6903 58.2111C96.6074 57.9348 96.4692 57.5204 96.2758 56.9677L94.8666 53.2652C94.6456 52.7126 94.5903 52.4915 94.5903 52.2152C94.5903 52.077 94.5903 51.9389 94.7285 51.856C94.9495 51.6349 95.2811 51.4968 95.6403 51.4968V50.9442V50.9718H95.6956ZM72.8999 51.3863C73.4526 51.4692 74.2262 51.3863 74.9723 51.2481C75.6078 51.11 75.8841 51.0271 76.3815 50.8336L76.6025 50.9718V51.8007C77.0999 51.3863 78.2327 50.806 79.6143 50.806C81.5208 50.806 82.6813 51.7178 83.0405 53.2652C83.1234 53.6796 83.1787 54.5915 83.1787 55.1717V58.1835C83.1787 59.8414 83.2616 60.3387 83.5932 60.7256C83.7313 60.8637 84.1458 61.0019 84.5879 61.0019V61.4992C83.8971 61.4992 82.6813 61.4163 82.0182 61.4163C81.0235 61.4163 79.9735 61.4992 79.4485 61.5545V61.0019C79.9459 60.919 80.2774 60.7808 80.4985 60.6427C80.7748 60.3664 80.8577 59.7308 80.9129 58.4874C80.9129 58.073 80.9129 57.3269 80.9129 56.6638C80.9129 55.8901 80.9129 55.0336 80.8301 54.2875C80.6919 52.9612 80.0011 52.3257 78.6748 52.3257C77.763 52.3257 77.1275 52.5468 76.713 52.7402V58.2111C76.713 59.869 76.7959 60.3664 77.1275 60.7532C77.2656 60.8914 77.6801 61.0295 78.1222 61.0295V61.5269C77.2104 61.3058 76.1604 61.3058 75.4696 61.3058C74.0604 61.3058 73.646 61.3058 72.8999 61.444V60.9466C73.3144 60.9466 73.8118 60.8085 74.0328 60.5321C74.3091 60.1729 74.392 59.2887 74.392 57.5204V54.5638C74.392 53.3204 74.392 52.7402 74.171 52.4915C74.0328 52.2705 73.6736 52.077 73.0105 52.1323V51.3586L72.8999 51.3863ZM106.831 61.4992C103.709 61.4992 101.995 59.6756 101.995 56.3875C101.995 55.8349 102.134 50.7231 106.886 50.7231C108.295 50.7231 109.539 51.2757 110.091 52.2705C110.727 53.2652 110.782 54.2323 110.782 55.0612V55.6967H104.289C104.289 56.2493 104.372 56.6914 104.427 57.023C104.786 59.0677 105.891 60.0348 107.853 60.0348C108.986 60.0348 109.677 59.8137 110.312 59.3993L110.589 59.8966C109.898 60.8361 108.516 61.4992 106.831 61.4992ZM104.316 54.5362H108.351C108.351 53.2928 108.13 51.8836 106.306 51.8836C104.731 51.9665 104.399 53.4586 104.316 54.5362Z" fill="#8C1515"/>
<path d="M15.3446 6.01758L5.7843 15.3569V40.4735L14.0736 48.9562H17.8867C17.8038 49.2049 17.6656 49.5917 17.942 49.9786C18.2183 50.393 18.7156 50.393 18.909 50.393C19.1301 50.393 19.434 50.3654 19.9314 50.3101C19.9314 50.3101 20.1248 50.4759 19.5169 50.697C19.0196 50.8628 18.5775 51.1667 18.4393 51.6641C18.4393 51.6917 18.4393 51.747 18.4117 51.7746H5.7843V64.623L15.3446 74.0176H40.4613L50.0216 64.6507V40.5564L41.7323 32.1013H34.6864C34.3824 31.9079 34.0509 31.7145 33.7745 31.521L33.664 31.4658H33.6364C33.4706 31.3552 33.3048 31.2447 33.139 31.0789C32.9732 30.9408 32.8627 30.8303 32.7522 30.7197L32.7246 30.6921C32.5311 30.4987 32.3654 30.3053 32.2548 30.1395C33.3601 30.4434 34.5482 30.5263 35.1285 30.5539H35.1837C35.2114 30.5539 35.2666 30.5539 35.2943 30.5539H35.3495C35.4877 30.5539 35.5982 30.5816 35.6535 30.6092C35.7364 30.6368 35.7916 30.6645 35.8469 30.6921L36.1508 30.8026C36.2337 30.8303 36.289 30.8303 36.3719 30.8303C36.814 30.8303 37.2008 30.5816 37.3942 30.1671C37.4495 30.029 37.56 29.7526 37.4771 29.3934H50.0216V15.3845L40.4336 6.01758H15.3446Z" fill="#8C1515"/>
<path d="M48.861 15.8815L39.9915 7.17773H15.7867L6.91711 15.8539V40.0034L14.5433 47.7954H19.4616C18.909 48.2927 18.7432 48.8177 18.6603 49.0664C18.4669 49.619 18.2735 49.7848 19.9866 49.5361C20.5392 49.4532 21.5339 49.094 22.0037 48.7901C22.4734 48.4861 23.3576 48.7348 23.3023 49.398C22.8879 50.4479 21.7826 51.0835 20.7326 51.2216C18.3287 51.5256 19.3787 52.4097 19.3787 52.4097C19.655 52.6032 19.8208 52.769 19.959 52.9347H18.7985H6.91711V64.1253L15.7867 72.8291H39.9915L48.861 64.1253V41.0534L41.2349 33.2891H35.0731C34.5758 32.9575 33.9126 32.5983 33.3048 32.2115C33.0837 32.0733 32.835 31.9075 32.6416 31.7141C32.4482 31.5759 32.31 31.4102 32.1719 31.272C31.6469 30.7194 31.2324 30.1391 31.1219 29.8628C30.9285 29.3655 30.9561 28.7576 31.4259 29.0063C32.5587 29.6694 34.4376 29.7799 35.1284 29.8076C35.2113 29.8076 35.7639 29.8628 35.9021 29.9181C36.0402 29.9733 36.2613 30.0839 36.2613 30.0839C36.5376 30.1944 37.0626 29.8076 36.4547 29.0892C36.2889 28.8405 36.0679 28.5642 35.7916 28.2602H48.8887L48.861 15.8815Z" fill="white"/>
<path d="M16.2563 8.33984L8.07751 16.3528V39.5077L15.0405 46.6365H21.5891C22.6943 46.1391 22.943 46.1944 23.247 45.5589C23.3022 45.4483 23.3298 45.172 23.3575 44.8957C23.3851 44.8128 23.5233 43.9839 23.1088 44.1773C22.418 44.5365 21.0088 43.5971 19.9312 44.1497C18.8813 44.7023 19.6549 43.4313 19.7931 43.2102C19.7931 43.2102 20.3457 42.4642 21.2023 41.9668C21.2299 41.9392 21.2575 41.9392 21.2852 41.9116C21.368 41.8563 21.4509 41.8287 21.5338 41.7734C22.1693 41.4695 24.0206 40.2261 24.3522 39.8669C24.5456 39.6458 24.9048 39.1208 24.9048 38.8445C24.9601 38.5958 25.0153 38.209 24.7667 38.0708C24.4075 37.8498 24.1312 38.2919 23.5785 38.5406C23.0259 38.7893 22.6114 38.8998 22.1141 38.8998C21.6444 38.9274 21.1746 38.734 20.8983 38.7893C20.622 38.8445 20.4562 38.6235 20.9812 38.0985C21.2299 37.8498 21.3128 37.7669 21.4233 37.684C22.6667 36.8827 23.7719 36.8827 24.3798 35.4735C24.3798 35.4735 24.8496 34.2025 23.9377 34.7551C23.4404 35.0591 23.1364 35.4735 21.6996 35.4735C20.2352 35.4735 19.6826 36.1643 19.4339 36.4682C19.4339 36.4682 18.4392 37.8498 18.6878 35.9156C18.9365 33.9815 19.3233 32.9867 20.2352 32.2407C21.0365 31.6052 22.9706 30.721 23.6891 29.7539C24.0483 29.3947 24.9601 28.3447 24.4351 27.4882C24.214 27.129 23.6614 28.0684 23.1088 28.2066C22.4733 28.3724 21.6444 28.5934 21.0365 28.4552C20.2628 28.2895 19.7654 28.5934 19.4891 28.7316C19.2128 28.8697 18.6602 28.4552 19.3233 27.6816C20.2075 26.6592 22.3628 25.3329 23.7996 24.5593C23.993 24.4764 24.4904 24.2553 24.9325 23.979H24.9601C25.0706 23.9238 25.2364 23.8409 25.3193 23.7027C25.6232 23.4264 25.8443 23.1501 25.789 22.8461C25.7337 22.5698 25.5956 22.4869 25.1535 22.4317C24.8219 22.404 24.2417 22.7909 23.7719 22.7632C23.0535 22.708 21.9759 22.8738 22.3351 22.3488C22.6667 21.8791 23.1917 21.5751 23.3575 21.4922C23.6614 21.3541 24.0483 21.1883 24.6285 20.912C25.5403 20.4975 25.4298 19.4475 25.0706 19.4199C24.518 19.3646 23.0259 19.8344 24.0759 18.6462C24.0759 18.6462 24.5732 18.1489 25.0706 17.8173C25.4574 17.5962 25.789 17.4857 26.2035 17.3476C26.4522 17.2647 27.0877 16.6844 25.568 16.6292C25.568 16.6292 24.7114 16.6568 24.8772 16.27C25.0153 16.0213 25.7614 15.5239 25.7614 15.5239C25.7614 15.5239 26.3693 15.1094 26.6179 14.8608C26.8666 14.6397 27.0324 14.4463 27.0048 14.2529C27.0048 14.0318 26.3969 13.7279 26.1482 13.3963C25.9548 13.1753 26.1206 13.0924 26.2311 13.0648C26.2864 13.0648 26.3416 13.0371 26.4245 13.0371C27.0324 13.0371 27.2258 12.4292 27.585 10.799C27.6956 10.3293 27.6956 10.2188 27.8613 10.2188C27.889 10.2188 27.889 10.2188 27.889 10.2188C27.889 10.2188 28.0548 11.0477 28.2758 11.9595C28.4692 12.4569 28.6626 12.6779 29.0495 12.6779C29.1324 12.6779 29.1876 12.6779 29.2429 12.7055C29.3534 12.7332 29.4916 12.8161 29.3258 13.0371C29.1876 13.2305 28.7732 13.5068 28.7455 13.6726C28.635 14.17 29.1047 14.3634 29.6021 14.391C30.2929 14.4463 30.0166 14.8608 29.2705 15.4134C28.5521 15.9384 30.4034 17.0989 30.4034 17.0989C31.4534 17.9002 30.7073 18.1212 30.4863 18.2318C30.2652 18.3423 29.685 18.7015 30.2652 18.9225C30.8731 19.1436 31.6744 19.9725 31.6744 19.9725C32.7244 21.1883 31.2323 20.6909 30.6797 20.7462C30.3205 20.7738 30.1823 21.8238 31.1218 22.2383C32.531 22.8738 32.8349 22.9843 33.3323 23.3435C34.2717 24.0343 33.7744 24.6145 32.6139 24.4211C32.6139 24.4211 31.8678 24.2277 31.3429 24.3382C31.0113 24.3935 30.7902 24.4764 30.6521 24.5593C30.5692 24.6698 30.3758 25.1671 32.006 25.6645C32.7797 25.9132 33.7191 26.4934 34.5757 27.1566H47.7833V16.4357L39.5216 8.33984H16.2563ZM36.2059 34.4236C36.5927 35.0591 36.8138 35.888 36.9796 37.0761C36.9796 37.7945 36.0125 37.463 35.7086 37.2695C35.4875 37.1314 35.2112 36.9932 34.8244 36.8827C34.1336 36.7169 32.4481 35.9709 32.006 35.8327C31.5363 35.6669 31.2047 35.9985 31.1494 36.1367C31.0389 36.3577 31.2876 36.7998 31.2876 36.7998C31.9507 38.2919 33.1389 38.209 34.4652 39.1485C36.2888 40.4471 35.3217 40.7234 34.9349 40.53C34.5757 40.3366 33.9402 40.4471 33.9402 40.4471C32.4757 40.8616 32.0336 40.2261 31.1771 40.005C30.3205 39.784 31.0113 40.834 31.3429 41.1932C31.6744 41.58 33.5257 42.8234 34.1612 43.0997C35.5704 43.7628 36.2888 44.8128 36.7309 46.1667C37.1454 47.4378 36.7033 47.1615 36.3717 46.9957C36.0401 46.8299 35.9296 46.4983 35.1007 46.526C34.2717 46.5536 33.802 46.4707 33.1941 46.0286C33.0283 45.9181 32.9178 45.7799 32.8073 45.6418C32.8073 45.6418 32.8073 45.6418 32.7797 45.6418C32.1994 45.1997 32.3099 46.6641 32.4481 46.8852C32.8626 47.7141 33.1389 47.3825 35.5151 48.6535C36.648 49.2614 36.8967 50.0627 37.0348 50.3943C37.2283 50.9469 37.4217 51.1127 35.7086 50.864C35.1559 50.7811 34.1612 50.4496 33.6915 50.118C33.2494 49.814 32.3376 50.0627 32.4205 50.7259C32.8349 51.7758 33.9402 52.4114 34.9901 52.5495C35.902 52.66 36.3164 52.8535 36.4822 53.0745C36.9796 53.6548 36.0678 54.4837 36.0678 54.4837C35.598 55.0087 36.0954 55.6442 36.4546 55.8376C37.0072 56.1139 38.0848 56.7771 38.444 57.6889C40.3229 62.4967 38.4993 61.1151 37.6151 60.5625C36.7309 60.0099 35.0454 58.6007 33.4981 58.7112C31.9507 58.8218 31.4534 58.9047 30.5139 58.1863C29.6021 57.4678 29.685 58.6283 29.685 58.6283V64.4309C29.7403 65.7295 29.9889 66.9729 31.0113 68.0229C31.8678 68.8795 32.5034 68.7413 33.6915 70.1781C34.2441 70.8413 36.0401 71.5597 37.2283 71.5873H39.5216L47.7004 63.5467V41.4418L40.7374 34.3407L36.2059 34.4236ZM8.07751 54.0969V63.6296L16.2563 71.6702H18.8813C21.368 71.5597 22.2799 69.6255 23.0259 68.4374C23.5785 67.5532 24.6009 66.7795 25.2364 66.144C25.8995 65.4532 26.0377 63.9059 26.0377 62.2204V58.7112V58.7389V57.9099V57.3573V57.2192V55.6995C26.0377 55.3403 25.6232 55.3126 24.739 56.2797C23.8548 57.2468 22.3351 57.1639 21.4786 57.2468C20.622 57.3297 18.1076 58.6283 17.4168 59.5678C16.9747 60.1481 16.3392 59.6783 16.6155 58.5178C16.726 57.9928 16.9471 57.3021 17.3063 56.3902C17.8036 55.1192 19.6549 54.3732 19.6549 54.3732C19.6549 54.3732 19.8483 54.2903 20.0141 54.1245L8.07751 54.0969Z" fill="#8C1515"/>
<mask id="path-6-outside-1_8515_143479" maskUnits="userSpaceOnUse" x="15.5468" y="9.22461" width="25" height="63" fill="black">
<rect fill="white" x="15.5468" y="9.22461" width="25" height="63"/>
<path d="M23.2448 45.5611C22.9409 46.1965 22.6922 46.1412 21.5871 46.6385C20.8813 46.7407 19.313 47.3567 18.6862 49.0035C20.0123 49.2907 21.3908 48.2376 22.112 48.1418C22.8333 48.0461 23.1343 48.3812 23.3553 48.8359C23.5763 49.2907 22.6094 50.5258 21.2003 50.8657C19.7913 51.2055 19.5063 51.1337 19.2669 51.4928C19.0276 51.8518 20.5115 52.457 20.4876 53.0759C20.4685 53.571 20.1628 53.9821 20.0123 54.1258C19.8465 54.2916 19.6531 54.3744 19.6531 54.3744C19.6531 54.3744 17.8021 55.1204 17.3047 56.3913C16.9456 57.303 16.7246 57.9937 16.614 58.5187C16.3378 59.679 16.9732 60.1487 17.4153 59.5685C18.106 58.6292 20.6201 57.3307 21.4766 57.2478C22.3331 57.1649 23.8526 57.2478 24.7367 56.2808C25.6208 55.3138 26.0352 55.3414 26.0352 55.7006V57.2201V57.3583V57.9108V58.7121V58.7397V62.2208C26.0352 63.9062 25.8971 65.4533 25.234 66.144C24.5986 66.7795 23.5763 67.5531 23.0238 68.4372C22.2778 69.6252 21.3661 71.5592 18.8796 71.6697L37.2247 71.5868C36.0367 71.5592 34.2408 70.8408 33.6883 70.1778C32.5002 68.7411 31.8648 68.8792 31.0083 68.0228C29.9861 66.9729 29.7374 65.7296 29.6822 64.4311V58.6292C29.6822 58.6292 29.5993 57.4688 30.511 58.1871C31.4504 58.9055 31.9477 58.8226 33.4949 58.7121C35.042 58.6016 36.7274 60.0106 37.6115 60.5631C38.4956 61.1157 40.319 62.4971 38.4403 57.6898C38.0811 56.7781 37.0036 56.115 36.4511 55.8387C36.0919 55.6453 35.5946 55.0099 36.0643 54.4849C36.0643 54.4849 36.976 53.6561 36.4787 53.0759C36.3129 52.8549 35.8985 52.6615 34.9868 52.551C33.9369 52.4128 32.8318 51.7774 32.4174 50.7275C32.3345 50.0644 33.2462 49.8158 33.6883 50.1197C34.1579 50.4512 35.1525 50.7828 35.7051 50.8657C37.4181 51.1143 37.2247 50.9485 37.0313 50.396C36.8931 50.0644 36.6445 49.2632 35.5117 48.6554C33.1357 47.3845 32.8594 47.716 32.445 46.8872C32.3068 46.6662 32.1963 45.2019 32.7765 45.6439H32.8042C32.9147 45.7821 33.0252 45.9202 33.1909 46.0307C33.7988 46.4728 34.2684 46.5557 35.0973 46.528C35.9261 46.5004 36.0366 46.8319 36.3682 46.9977C36.6997 47.1635 37.1418 47.4398 36.7274 46.1689C36.2853 44.8151 35.567 43.7652 34.1579 43.1021C33.5225 42.8259 31.6714 41.5826 31.3399 41.1958C31.0083 40.8366 30.3176 39.7868 31.1741 40.0078C32.0306 40.2288 32.4726 40.8643 33.9369 40.4498C33.9369 40.4498 34.5724 40.3393 34.9315 40.5327C35.3183 40.7261 36.2853 40.4498 34.4618 39.1513C33.1357 38.212 31.9477 38.2948 31.2846 36.8029C31.2846 36.8029 31.0359 36.3609 31.1465 36.1398C31.2017 36.0017 31.5333 35.6702 32.0029 35.8359C32.445 35.9741 34.1303 36.72 34.821 36.8858C35.2078 36.9963 35.4841 37.1345 35.7051 37.2726C36.009 37.466 36.976 37.7975 36.976 37.0792C36.8102 35.8912 36.5892 35.0623 36.2024 34.4269C35.7979 33.7748 34.4618 32.9182 32.7461 31.8696C31.0304 30.821 30.7601 29.2481 30.8237 28.9939C30.8872 28.7397 31.2846 28.4592 31.6498 28.8509C32.2854 29.4913 35.4471 29.5818 35.7051 29.5818C35.9632 29.5818 36.6387 30.2649 36.6069 29.5818C36.5815 29.0352 35.2399 27.74 34.5724 27.1607C33.7159 26.4976 32.7765 25.9174 32.0029 25.6688C30.3729 25.1715 30.5663 24.6741 30.6492 24.5636C30.7873 24.4807 31.0083 24.3979 31.3399 24.3426C31.8648 24.2321 32.6108 24.4255 32.6108 24.4255C33.7711 24.6189 34.2684 24.0387 33.3291 23.348C32.8318 22.9888 32.5279 22.8783 31.1188 22.2429C30.1795 21.8284 30.3176 20.7786 30.6768 20.7509C31.2293 20.6957 32.7213 21.193 31.6714 19.9774C31.6714 19.9774 30.8702 19.1485 30.2624 18.9275C29.6822 18.7065 30.2624 18.3473 30.4834 18.2368C30.7044 18.1263 31.4504 17.9052 30.4005 17.104C30.4005 17.104 28.5494 15.9436 29.2677 15.4187C30.0137 14.8661 30.29 14.4517 29.5993 14.3965C29.102 14.3688 28.6323 14.1754 28.7428 13.6781C28.7704 13.5124 29.1849 13.2361 29.323 13.0427C29.4888 12.8217 29.3506 12.7388 29.2401 12.7111C29.1849 12.6835 29.1296 12.6835 29.0467 12.6835C28.6599 12.6835 28.4665 12.4625 28.2731 11.9652C28.0521 11.0535 27.8863 10.2246 27.8863 10.2246H27.8587C27.6929 10.2246 27.6929 10.3351 27.5824 10.8048C27.2233 12.4349 27.0299 13.0427 26.422 13.0427C26.3392 13.0427 26.2839 13.0703 26.2286 13.0703C26.1181 13.0979 25.9524 13.1808 26.1458 13.4018C26.3944 13.7334 27.0022 14.0373 27.0022 14.2583C27.0299 14.4517 26.8641 14.6451 26.6154 14.8661C26.3668 15.1148 25.759 15.5292 25.759 15.5292C25.759 15.5292 25.013 16.0265 24.8749 16.2752C24.7091 16.662 25.5656 16.6343 25.5656 16.6343C27.0851 16.6896 26.4497 17.2698 26.201 17.3527C25.7866 17.4908 25.4551 17.6013 25.0683 17.8224C24.571 18.1539 24.0736 18.6512 24.0736 18.6512C23.0238 19.8392 24.5157 19.3695 25.0683 19.4248C25.4274 19.4524 25.5379 20.5023 24.6262 20.9167C24.046 21.193 23.6592 21.3588 23.3553 21.4969C23.1895 21.5798 22.6646 21.8837 22.3331 22.3534C21.9739 22.8783 23.0514 22.7125 23.7697 22.7678C24.2394 22.7954 24.8196 22.4086 25.1511 22.4363C25.5932 22.4915 25.7313 22.5744 25.7866 22.8507C25.8419 23.1546 25.6208 23.4309 25.3169 23.7072C25.234 23.8453 25.0683 23.9282 24.9578 23.9834H24.9301C24.4881 24.2597 23.9908 24.4807 23.7974 24.5636C22.3607 25.3372 20.2057 26.6634 19.3216 27.6856C18.6585 28.4592 19.2111 28.8736 19.4874 28.7355C19.7637 28.5973 20.261 28.2934 21.0346 28.4592C21.6329 28.5952 22.4454 28.3831 23.0768 28.2184L23.1067 28.2106C23.6592 28.0724 24.2118 27.1331 24.4328 27.4922C24.9578 28.3487 24.046 29.3986 23.6869 29.7577C22.9685 30.7247 21.0346 31.6088 20.2333 32.2443C19.3216 32.9902 18.9348 33.9848 18.6862 35.9188C18.4375 37.8528 19.4321 36.4714 19.4321 36.4714L19.4384 36.4637C19.6901 36.156 20.2456 35.4768 21.6976 35.4768C23.1343 35.4768 23.4382 35.0623 23.9355 34.7584C24.8472 34.2059 24.3776 35.4768 24.3776 35.4768C23.7697 36.8858 22.6646 36.8858 21.4213 37.687C21.3108 37.7699 21.228 37.8528 20.9794 38.1014L20.9793 38.1014C20.4544 38.6264 20.6201 38.8474 20.8964 38.7921C21.1727 38.7369 21.6424 38.9303 22.112 38.9027C22.6094 38.9027 23.0238 38.7921 23.5763 38.5435C24.1289 38.2948 24.4052 37.8528 24.7644 38.0738C25.013 38.212 24.9578 38.5987 24.9025 38.8474C24.9025 39.1237 24.5433 39.6486 24.3499 39.8696C24.0184 40.2288 22.1673 41.4721 21.5319 41.776C21.449 41.8312 21.3661 41.8589 21.2832 41.9141C21.2556 41.9418 21.2279 41.9418 21.2003 41.9694C20.3438 42.4667 19.7913 43.2127 19.7913 43.2127C19.6531 43.4337 18.8796 44.7046 19.9294 44.152C21.0069 43.5994 22.416 44.5388 23.1067 44.1796C23.5211 43.9862 23.3829 44.8151 23.3553 44.898C23.3277 45.1743 23.3001 45.4505 23.2448 45.5611Z"/>
</mask>
<path d="M23.2448 45.5611C22.9409 46.1965 22.6922 46.1412 21.5871 46.6385C20.8813 46.7407 19.313 47.3567 18.6862 49.0035C20.0123 49.2907 21.3908 48.2376 22.112 48.1418C22.8333 48.0461 23.1343 48.3812 23.3553 48.8359C23.5763 49.2907 22.6094 50.5258 21.2003 50.8657C19.7913 51.2055 19.5063 51.1337 19.2669 51.4928C19.0276 51.8518 20.5115 52.457 20.4876 53.0759C20.4685 53.571 20.1628 53.9821 20.0123 54.1258C19.8465 54.2916 19.6531 54.3744 19.6531 54.3744C19.6531 54.3744 17.8021 55.1204 17.3047 56.3913C16.9456 57.303 16.7246 57.9937 16.614 58.5187C16.3378 59.679 16.9732 60.1487 17.4153 59.5685C18.106 58.6292 20.6201 57.3307 21.4766 57.2478C22.3331 57.1649 23.8526 57.2478 24.7367 56.2808C25.6208 55.3138 26.0352 55.3414 26.0352 55.7006V57.2201V57.3583V57.9108V58.7121V58.7397V62.2208C26.0352 63.9062 25.8971 65.4533 25.234 66.144C24.5986 66.7795 23.5763 67.5531 23.0238 68.4372C22.2778 69.6252 21.3661 71.5592 18.8796 71.6697L37.2247 71.5868C36.0367 71.5592 34.2408 70.8408 33.6883 70.1778C32.5002 68.7411 31.8648 68.8792 31.0083 68.0228C29.9861 66.9729 29.7374 65.7296 29.6822 64.4311V58.6292C29.6822 58.6292 29.5993 57.4688 30.511 58.1871C31.4504 58.9055 31.9477 58.8226 33.4949 58.7121C35.042 58.6016 36.7274 60.0106 37.6115 60.5631C38.4956 61.1157 40.319 62.4971 38.4403 57.6898C38.0811 56.7781 37.0036 56.115 36.4511 55.8387C36.0919 55.6453 35.5946 55.0099 36.0643 54.4849C36.0643 54.4849 36.976 53.6561 36.4787 53.0759C36.3129 52.8549 35.8985 52.6615 34.9868 52.551C33.9369 52.4128 32.8318 51.7774 32.4174 50.7275C32.3345 50.0644 33.2462 49.8158 33.6883 50.1197C34.1579 50.4512 35.1525 50.7828 35.7051 50.8657C37.4181 51.1143 37.2247 50.9485 37.0313 50.396C36.8931 50.0644 36.6445 49.2632 35.5117 48.6554C33.1357 47.3845 32.8594 47.716 32.445 46.8872C32.3068 46.6662 32.1963 45.2019 32.7765 45.6439H32.8042C32.9147 45.7821 33.0252 45.9202 33.1909 46.0307C33.7988 46.4728 34.2684 46.5557 35.0973 46.528C35.9261 46.5004 36.0366 46.8319 36.3682 46.9977C36.6997 47.1635 37.1418 47.4398 36.7274 46.1689C36.2853 44.8151 35.567 43.7652 34.1579 43.1021C33.5225 42.8259 31.6714 41.5826 31.3399 41.1958C31.0083 40.8366 30.3176 39.7868 31.1741 40.0078C32.0306 40.2288 32.4726 40.8643 33.9369 40.4498C33.9369 40.4498 34.5724 40.3393 34.9315 40.5327C35.3183 40.7261 36.2853 40.4498 34.4618 39.1513C33.1357 38.212 31.9477 38.2948 31.2846 36.8029C31.2846 36.8029 31.0359 36.3609 31.1465 36.1398C31.2017 36.0017 31.5333 35.6702 32.0029 35.8359C32.445 35.9741 34.1303 36.72 34.821 36.8858C35.2078 36.9963 35.4841 37.1345 35.7051 37.2726C36.009 37.466 36.976 37.7975 36.976 37.0792C36.8102 35.8912 36.5892 35.0623 36.2024 34.4269C35.7979 33.7748 34.4618 32.9182 32.7461 31.8696C31.0304 30.821 30.7601 29.2481 30.8237 28.9939C30.8872 28.7397 31.2846 28.4592 31.6498 28.8509C32.2854 29.4913 35.4471 29.5818 35.7051 29.5818C35.9632 29.5818 36.6387 30.2649 36.6069 29.5818C36.5815 29.0352 35.2399 27.74 34.5724 27.1607C33.7159 26.4976 32.7765 25.9174 32.0029 25.6688C30.3729 25.1715 30.5663 24.6741 30.6492 24.5636C30.7873 24.4807 31.0083 24.3979 31.3399 24.3426C31.8648 24.2321 32.6108 24.4255 32.6108 24.4255C33.7711 24.6189 34.2684 24.0387 33.3291 23.348C32.8318 22.9888 32.5279 22.8783 31.1188 22.2429C30.1795 21.8284 30.3176 20.7786 30.6768 20.7509C31.2293 20.6957 32.7213 21.193 31.6714 19.9774C31.6714 19.9774 30.8702 19.1485 30.2624 18.9275C29.6822 18.7065 30.2624 18.3473 30.4834 18.2368C30.7044 18.1263 31.4504 17.9052 30.4005 17.104C30.4005 17.104 28.5494 15.9436 29.2677 15.4187C30.0137 14.8661 30.29 14.4517 29.5993 14.3965C29.102 14.3688 28.6323 14.1754 28.7428 13.6781C28.7704 13.5124 29.1849 13.2361 29.323 13.0427C29.4888 12.8217 29.3506 12.7388 29.2401 12.7111C29.1849 12.6835 29.1296 12.6835 29.0467 12.6835C28.6599 12.6835 28.4665 12.4625 28.2731 11.9652C28.0521 11.0535 27.8863 10.2246 27.8863 10.2246H27.8587C27.6929 10.2246 27.6929 10.3351 27.5824 10.8048C27.2233 12.4349 27.0299 13.0427 26.422 13.0427C26.3392 13.0427 26.2839 13.0703 26.2286 13.0703C26.1181 13.0979 25.9524 13.1808 26.1458 13.4018C26.3944 13.7334 27.0022 14.0373 27.0022 14.2583C27.0299 14.4517 26.8641 14.6451 26.6154 14.8661C26.3668 15.1148 25.759 15.5292 25.759 15.5292C25.759 15.5292 25.013 16.0265 24.8749 16.2752C24.7091 16.662 25.5656 16.6343 25.5656 16.6343C27.0851 16.6896 26.4497 17.2698 26.201 17.3527C25.7866 17.4908 25.4551 17.6013 25.0683 17.8224C24.571 18.1539 24.0736 18.6512 24.0736 18.6512C23.0238 19.8392 24.5157 19.3695 25.0683 19.4248C25.4274 19.4524 25.5379 20.5023 24.6262 20.9167C24.046 21.193 23.6592 21.3588 23.3553 21.4969C23.1895 21.5798 22.6646 21.8837 22.3331 22.3534C21.9739 22.8783 23.0514 22.7125 23.7697 22.7678C24.2394 22.7954 24.8196 22.4086 25.1511 22.4363C25.5932 22.4915 25.7313 22.5744 25.7866 22.8507C25.8419 23.1546 25.6208 23.4309 25.3169 23.7072C25.234 23.8453 25.0683 23.9282 24.9578 23.9834H24.9301C24.4881 24.2597 23.9908 24.4807 23.7974 24.5636C22.3607 25.3372 20.2057 26.6634 19.3216 27.6856C18.6585 28.4592 19.2111 28.8736 19.4874 28.7355C19.7637 28.5973 20.261 28.2934 21.0346 28.4592C21.6329 28.5952 22.4454 28.3831 23.0768 28.2184L23.1067 28.2106C23.6592 28.0724 24.2118 27.1331 24.4328 27.4922C24.9578 28.3487 24.046 29.3986 23.6869 29.7577C22.9685 30.7247 21.0346 31.6088 20.2333 32.2443C19.3216 32.9902 18.9348 33.9848 18.6862 35.9188C18.4375 37.8528 19.4321 36.4714 19.4321 36.4714L19.4384 36.4637C19.6901 36.156 20.2456 35.4768 21.6976 35.4768C23.1343 35.4768 23.4382 35.0623 23.9355 34.7584C24.8472 34.2059 24.3776 35.4768 24.3776 35.4768C23.7697 36.8858 22.6646 36.8858 21.4213 37.687C21.3108 37.7699 21.228 37.8528 20.9794 38.1014L20.9793 38.1014C20.4544 38.6264 20.6201 38.8474 20.8964 38.7921C21.1727 38.7369 21.6424 38.9303 22.112 38.9027C22.6094 38.9027 23.0238 38.7921 23.5763 38.5435C24.1289 38.2948 24.4052 37.8528 24.7644 38.0738C25.013 38.212 24.9578 38.5987 24.9025 38.8474C24.9025 39.1237 24.5433 39.6486 24.3499 39.8696C24.0184 40.2288 22.1673 41.4721 21.5319 41.776C21.449 41.8312 21.3661 41.8589 21.2832 41.9141C21.2556 41.9418 21.2279 41.9418 21.2003 41.9694C20.3438 42.4667 19.7913 43.2127 19.7913 43.2127C19.6531 43.4337 18.8796 44.7046 19.9294 44.152C21.0069 43.5994 22.416 44.5388 23.1067 44.1796C23.5211 43.9862 23.3829 44.8151 23.3553 44.898C23.3277 45.1743 23.3001 45.4505 23.2448 45.5611Z" fill="#007662"/>
<path d="M23.2448 45.5611C22.9409 46.1965 22.6922 46.1412 21.5871 46.6385C20.8813 46.7407 19.313 47.3567 18.6862 49.0035C20.0123 49.2907 21.3908 48.2376 22.112 48.1418C22.8333 48.0461 23.1343 48.3812 23.3553 48.8359C23.5763 49.2907 22.6094 50.5258 21.2003 50.8657C19.7913 51.2055 19.5063 51.1337 19.2669 51.4928C19.0276 51.8518 20.5115 52.457 20.4876 53.0759C20.4685 53.571 20.1628 53.9821 20.0123 54.1258C19.8465 54.2916 19.6531 54.3744 19.6531 54.3744C19.6531 54.3744 17.8021 55.1204 17.3047 56.3913C16.9456 57.303 16.7246 57.9937 16.614 58.5187C16.3378 59.679 16.9732 60.1487 17.4153 59.5685C18.106 58.6292 20.6201 57.3307 21.4766 57.2478C22.3331 57.1649 23.8526 57.2478 24.7367 56.2808C25.6208 55.3138 26.0352 55.3414 26.0352 55.7006V57.2201V57.3583V57.9108V58.7121V58.7397V62.2208C26.0352 63.9062 25.8971 65.4533 25.234 66.144C24.5986 66.7795 23.5763 67.5531 23.0238 68.4372C22.2778 69.6252 21.3661 71.5592 18.8796 71.6697L37.2247 71.5868C36.0367 71.5592 34.2408 70.8408 33.6883 70.1778C32.5002 68.7411 31.8648 68.8792 31.0083 68.0228C29.9861 66.9729 29.7374 65.7296 29.6822 64.4311V58.6292C29.6822 58.6292 29.5993 57.4688 30.511 58.1871C31.4504 58.9055 31.9477 58.8226 33.4949 58.7121C35.042 58.6016 36.7274 60.0106 37.6115 60.5631C38.4956 61.1157 40.319 62.4971 38.4403 57.6898C38.0811 56.7781 37.0036 56.115 36.4511 55.8387C36.0919 55.6453 35.5946 55.0099 36.0643 54.4849C36.0643 54.4849 36.976 53.6561 36.4787 53.0759C36.3129 52.8549 35.8985 52.6615 34.9868 52.551C33.9369 52.4128 32.8318 51.7774 32.4174 50.7275C32.3345 50.0644 33.2462 49.8158 33.6883 50.1197C34.1579 50.4512 35.1525 50.7828 35.7051 50.8657C37.4181 51.1143 37.2247 50.9485 37.0313 50.396C36.8931 50.0644 36.6445 49.2632 35.5117 48.6554C33.1357 47.3845 32.8594 47.716 32.445 46.8872C32.3068 46.6662 32.1963 45.2019 32.7765 45.6439H32.8042C32.9147 45.7821 33.0252 45.9202 33.1909 46.0307C33.7988 46.4728 34.2684 46.5557 35.0973 46.528C35.9261 46.5004 36.0366 46.8319 36.3682 46.9977C36.6997 47.1635 37.1418 47.4398 36.7274 46.1689C36.2853 44.8151 35.567 43.7652 34.1579 43.1021C33.5225 42.8259 31.6714 41.5826 31.3399 41.1958C31.0083 40.8366 30.3176 39.7868 31.1741 40.0078C32.0306 40.2288 32.4726 40.8643 33.9369 40.4498C33.9369 40.4498 34.5724 40.3393 34.9315 40.5327C35.3183 40.7261 36.2853 40.4498 34.4618 39.1513C33.1357 38.212 31.9477 38.2948 31.2846 36.8029C31.2846 36.8029 31.0359 36.3609 31.1465 36.1398C31.2017 36.0017 31.5333 35.6702 32.0029 35.8359C32.445 35.9741 34.1303 36.72 34.821 36.8858C35.2078 36.9963 35.4841 37.1345 35.7051 37.2726C36.009 37.466 36.976 37.7975 36.976 37.0792C36.8102 35.8912 36.5892 35.0623 36.2024 34.4269C35.7979 33.7748 34.4618 32.9182 32.7461 31.8696C31.0304 30.821 30.7601 29.2481 30.8237 28.9939C30.8872 28.7397 31.2846 28.4592 31.6498 28.8509C32.2854 29.4913 35.4471 29.5818 35.7051 29.5818C35.9632 29.5818 36.6387 30.2649 36.6069 29.5818C36.5815 29.0352 35.2399 27.74 34.5724 27.1607C33.7159 26.4976 32.7765 25.9174 32.0029 25.6688C30.3729 25.1715 30.5663 24.6741 30.6492 24.5636C30.7873 24.4807 31.0083 24.3979 31.3399 24.3426C31.8648 24.2321 32.6108 24.4255 32.6108 24.4255C33.7711 24.6189 34.2684 24.0387 33.3291 23.348C32.8318 22.9888 32.5279 22.8783 31.1188 22.2429C30.1795 21.8284 30.3176 20.7786 30.6768 20.7509C31.2293 20.6957 32.7213 21.193 31.6714 19.9774C31.6714 19.9774 30.8702 19.1485 30.2624 18.9275C29.6822 18.7065 30.2624 18.3473 30.4834 18.2368C30.7044 18.1263 31.4504 17.9052 30.4005 17.104C30.4005 17.104 28.5494 15.9436 29.2677 15.4187C30.0137 14.8661 30.29 14.4517 29.5993 14.3965C29.102 14.3688 28.6323 14.1754 28.7428 13.6781C28.7704 13.5124 29.1849 13.2361 29.323 13.0427C29.4888 12.8217 29.3506 12.7388 29.2401 12.7111C29.1849 12.6835 29.1296 12.6835 29.0467 12.6835C28.6599 12.6835 28.4665 12.4625 28.2731 11.9652C28.0521 11.0535 27.8863 10.2246 27.8863 10.2246H27.8587C27.6929 10.2246 27.6929 10.3351 27.5824 10.8048C27.2233 12.4349 27.0299 13.0427 26.422 13.0427C26.3392 13.0427 26.2839 13.0703 26.2286 13.0703C26.1181 13.0979 25.9524 13.1808 26.1458 13.4018C26.3944 13.7334 27.0022 14.0373 27.0022 14.2583C27.0299 14.4517 26.8641 14.6451 26.6154 14.8661C26.3668 15.1148 25.759 15.5292 25.759 15.5292C25.759 15.5292 25.013 16.0265 24.8749 16.2752C24.7091 16.662 25.5656 16.6343 25.5656 16.6343C27.0851 16.6896 26.4497 17.2698 26.201 17.3527C25.7866 17.4908 25.4551 17.6013 25.0683 17.8224C24.571 18.1539 24.0736 18.6512 24.0736 18.6512C23.0238 19.8392 24.5157 19.3695 25.0683 19.4248C25.4274 19.4524 25.5379 20.5023 24.6262 20.9167C24.046 21.193 23.6592 21.3588 23.3553 21.4969C23.1895 21.5798 22.6646 21.8837 22.3331 22.3534C21.9739 22.8783 23.0514 22.7125 23.7697 22.7678C24.2394 22.7954 24.8196 22.4086 25.1511 22.4363C25.5932 22.4915 25.7313 22.5744 25.7866 22.8507C25.8419 23.1546 25.6208 23.4309 25.3169 23.7072C25.234 23.8453 25.0683 23.9282 24.9578 23.9834H24.9301C24.4881 24.2597 23.9908 24.4807 23.7974 24.5636C22.3607 25.3372 20.2057 26.6634 19.3216 27.6856C18.6585 28.4592 19.2111 28.8736 19.4874 28.7355C19.7637 28.5973 20.261 28.2934 21.0346 28.4592C21.6329 28.5952 22.4454 28.3831 23.0768 28.2184L23.1067 28.2106C23.6592 28.0724 24.2118 27.1331 24.4328 27.4922C24.9578 28.3487 24.046 29.3986 23.6869 29.7577C22.9685 30.7247 21.0346 31.6088 20.2333 32.2443C19.3216 32.9902 18.9348 33.9848 18.6862 35.9188C18.4375 37.8528 19.4321 36.4714 19.4321 36.4714L19.4384 36.4637C19.6901 36.156 20.2456 35.4768 21.6976 35.4768C23.1343 35.4768 23.4382 35.0623 23.9355 34.7584C24.8472 34.2059 24.3776 35.4768 24.3776 35.4768C23.7697 36.8858 22.6646 36.8858 21.4213 37.687C21.3108 37.7699 21.228 37.8528 20.9794 38.1014L20.9793 38.1014C20.4544 38.6264 20.6201 38.8474 20.8964 38.7921C21.1727 38.7369 21.6424 38.9303 22.112 38.9027C22.6094 38.9027 23.0238 38.7921 23.5763 38.5435C24.1289 38.2948 24.4052 37.8528 24.7644 38.0738C25.013 38.212 24.9578 38.5987 24.9025 38.8474C24.9025 39.1237 24.5433 39.6486 24.3499 39.8696C24.0184 40.2288 22.1673 41.4721 21.5319 41.776C21.449 41.8312 21.3661 41.8589 21.2832 41.9141C21.2556 41.9418 21.2279 41.9418 21.2003 41.9694C20.3438 42.4667 19.7913 43.2127 19.7913 43.2127C19.6531 43.4337 18.8796 44.7046 19.9294 44.152C21.0069 43.5994 22.416 44.5388 23.1067 44.1796C23.5211 43.9862 23.3829 44.8151 23.3553 44.898C23.3277 45.1743 23.3001 45.4505 23.2448 45.5611Z" stroke="white" stroke-width="1.10524" mask="url(#path-6-outside-1_8515_143479)"/>
</svg>
