<svg width="205" height="80" viewBox="0 0 205 80" fill="none" xmlns="http://www.w3.org/2000/svg">
<path d="M17.5234 54.6364C18.3268 56.7685 19.4391 58.5915 20.8605 60.1054C22.2819 61.6196 23.9659 62.7782 25.9124 63.5816C27.8591 64.3851 29.9757 64.7867 32.2622 64.7867C34.4871 64.7867 36.5726 64.3695 38.5193 63.5351C40.4661 62.7007 42.1654 61.5266 43.6176 60.0127C45.0698 58.4986 46.1977 56.6912 47.0011 54.59C47.8045 52.4888 48.2061 50.1407 48.2061 47.545V7.5H57.9393V72.3877H48.2988V66.3623C46.1359 68.6487 43.5866 70.41 40.6513 71.6462C37.7157 72.882 34.5488 73.5 31.1499 73.5C27.6891 73.5 24.4602 72.8974 21.4629 71.6924C18.4659 70.4873 15.8702 68.7726 13.6765 66.5478C11.4828 64.3229 9.75232 61.6505 8.48556 58.5296C7.21859 55.4088 6.58521 51.9328 6.58521 48.1011V7.5H16.3183V47.545C16.3183 50.1407 16.7199 52.5042 17.5234 54.6364ZM74.7165 7.5V31.1376C76.8794 28.9747 79.3824 27.26 82.225 25.993C85.0677 24.726 88.1576 24.0927 91.4946 24.0927C94.9554 24.0927 98.1995 24.7414 101.228 26.0392C104.256 27.3369 106.882 29.0982 109.107 31.323C111.332 33.5479 113.093 36.1741 114.391 39.2022C115.688 42.2304 116.337 45.4439 116.337 48.8428C116.337 52.2415 115.688 55.4396 114.391 58.4366C113.093 61.4339 111.332 64.045 109.107 66.2694C106.882 68.4943 104.256 70.2556 101.228 71.5533C98.1995 72.851 94.9552 73.4998 91.4946 73.4998C88.1574 73.4998 85.0523 72.8664 82.1787 71.5994C79.3051 70.3327 76.7867 68.6177 74.6238 66.4548V72.3875H65.3542V7.5H74.7165ZM75.7825 55.2388C76.6167 57.2164 77.7755 58.9468 79.2587 60.4299C80.7419 61.9131 82.4722 63.0873 84.4497 63.9525C86.4273 64.8176 88.5593 65.2502 90.8458 65.2502C93.0707 65.2502 95.1716 64.8176 97.1491 63.9525C99.1266 63.0873 100.841 61.9133 102.294 60.4299C103.746 58.947 104.905 57.2164 105.77 55.2388C106.635 53.2613 107.068 51.1294 107.068 48.8428C107.068 46.5562 106.635 44.4087 105.77 42.4002C104.905 40.3918 103.746 38.6461 102.294 37.1629C100.842 35.68 99.1268 34.5211 97.1491 33.6869C95.1714 32.8527 93.0705 32.4353 90.8458 32.4353C88.6212 32.4353 86.52 32.8525 84.5426 33.6869C82.5651 34.5213 80.8348 35.68 79.3514 37.1629C77.8685 38.6461 76.6942 40.3918 75.829 42.4002C74.9639 44.4087 74.5313 46.5562 74.5313 48.8428C74.5311 51.1294 74.9483 53.2613 75.7825 55.2388ZM121.62 39.2951C122.856 36.3288 124.556 33.7179 126.718 31.4623C128.881 29.2067 131.446 27.43 134.412 26.1323C137.379 24.8345 140.592 24.1858 144.053 24.1858C147.452 24.1858 150.603 24.8038 153.508 26.0396C156.412 27.2756 158.915 28.9905 161.016 31.1844C163.117 33.378 164.755 35.9737 165.929 38.9708C167.103 41.9681 167.69 45.2279 167.69 48.7505V51.8095H129.221C129.53 53.7252 130.148 55.5019 131.075 57.1393C132.002 58.7769 133.161 60.1983 134.551 61.4034C135.942 62.6086 137.518 63.5511 139.279 64.2306C141.04 64.9104 142.909 65.2504 144.887 65.2504C150.511 65.2504 155.053 62.9329 158.514 58.298L165.28 63.3035C162.932 66.4553 160.028 68.9273 156.567 70.7193C153.106 72.5114 149.213 73.4075 144.887 73.4075C141.365 73.4075 138.074 72.7893 135.015 71.5535C131.956 70.3177 129.299 68.5872 127.043 66.3623C124.788 64.1375 123.011 61.5266 121.713 58.5296C120.415 55.5325 119.766 52.2724 119.766 48.7501C119.766 45.4131 120.384 42.2614 121.62 39.2951ZM134.644 35.6334C132.018 37.8273 130.272 40.7473 129.407 44.3933H158.235C157.432 40.7473 155.717 37.8273 153.091 35.6334C150.464 33.4398 147.39 32.3428 143.867 32.3428C140.345 32.3428 137.27 33.4398 134.644 35.6334ZM185.209 36.6994C183.232 38.8623 182.243 41.7976 182.243 45.5056V72.3879H172.881V25.1125H182.15V30.9524C183.324 29.0367 184.854 27.5225 186.739 26.4102C188.623 25.2977 190.864 24.7414 193.459 24.7414H196.704V33.4549H192.81C189.721 33.4552 187.187 34.5365 185.209 36.6994Z" fill="#010202"/>
</svg>
